PathFileType	4	(X/Y/Z)	C:/Users/opensim2020/Desktop/walking_exp_matlab/subject06_walking14_straight_02.trc	
DataRate	CameraRate	NumFrames	NumMarkers	Units	OrigDataRate	OrigDataStartFrame	OrigNumFrames	
100.00	100.00	6	45	mm	100.00	1604	192	
Frame#	Time	LFHD			RFHD			LBHD			RBHD			C7			T10			CLAV			STRN			RBAK			LSHO			LUPA			LELB			LFRM			LWRA			LWRB			LFIN			RSHO			RUPA			RELB			RFRM			RWRA			RWRB			RFIN			LASI			RASI			LPSI			RPSI			LTHI			LKNE			LTIB			LANK			LHEE			LTOE			RTHI			RKNE			RTIB			RANK			RHEE			RTOE			*39			*40			*41			*42			*43			*44			
		X1	Y1	Z1	X2	Y2	Z2	X3	Y3	Z3	X4	Y4	Z4	X5	Y5	Z5	X6	Y6	Z6	X7	Y7	Z7	X8	Y8	Z8	X9	Y9	Z9	X10	Y10	Z10	X11	Y11	Z11	X12	Y12	Z12	X13	Y13	Z13	X14	Y14	Z14	X15	Y15	Z15	X16	Y16	Z16	X17	Y17	Z17	X18	Y18	Z18	X19	Y19	Z19	X20	Y20	Z20	X21	Y21	Z21	X22	Y22	Z22	X23	Y23	Z23	X24	Y24	Z24	X25	Y25	Z25	X26	Y26	Z26	X27	Y27	Z27	X28	Y28	Z28	X29	Y29	Z29	X30	Y30	Z30	X31	Y31	Z31	X32	Y32	Z32	X33	Y33	Z33	X34	Y34	Z34	X35	Y35	Z35	X36	Y36	Z36	X37	Y37	Z37	X38	Y38	Z38	X39	Y39	Z39	X40	Y40	Z40	X41	Y41	Z41	X42	Y42	Z42	X43	Y43	Z43	X44	Y44	Z44	X45	Y45	Z45	

25	0.240	-942.49860	701.33795	1653.56616	-1074.18066	690.41486	1647.80920	-955.34619	833.25751	1596.99292	-1083.97595	820.20172	1596.39014	-1017.14313	824.02240	1444.55652	-1032.41992	874.49329	1118.95410	-1009.31024	715.64380	1365.06018	-1009.51544	685.42047	1188.00146	-1113.87793	894.65607	1284.87000	-852.20959	783.95416	1394.44824	-792.49036	843.03760	1199.03491	-790.30304	880.88654	1092.72156	-770.77521	901.24335	943.09564	-807.93756	866.06195	816.65973	-779.55524	931.99225	828.05280	-776.97040	912.88416	738.27106	-1171.63037	740.68335	1404.69019	-1273.79187	731.76166	1212.97668	-1294.95081	686.09760	1102.17761	-1313.71875	609.86536	1012.14136	-1288.10376	478.88861	942.98462	-1310.31982	525.32587	901.73505	-1315.81250	449.91003	864.64459	-925.35419	689.73230	958.44861	-1144.54492	701.53857	960.05634	-944.03888	850.56726	979.76074	-1112.91260	853.27136	985.89362	-854.23743	689.61218	649.21185	-882.35144	628.10370	498.60159	-889.17358	614.10693	244.68530	-925.98621	573.79297	75.52049	-976.33508	603.35553	53.28323	-914.95728	428.95480	74.26394	-1184.22400	791.18970	625.59583	-1160.28076	806.02759	499.74655	-1144.28430	916.22571	251.51689	-1086.88025	968.26959	74.46532	-1038.39282	1007.59760	54.75396	-1096.07434	818.39575	31.02652	-1008.07855	796.83685	1692.76184															 
26	0.250	-942.54669	691.79456	1652.07874	-1074.25549	680.65088	1646.31995	-955.46338	823.61884	1595.48083	-1084.17419	810.39722	1594.94666	-1017.26385	814.44299	1443.10583	-1032.15637	864.79968	1117.43738	-1009.44122	706.09100	1363.49902	-1009.68927	675.80853	1186.51074	-1113.85950	885.22595	1283.40173	-852.33557	774.49908	1392.96533	-792.93341	834.92041	1198.00867	-790.90149	873.61292	1091.99878	-771.33875	895.70331	942.64880	-807.71265	861.71613	815.64020	-779.95453	927.65930	827.90857	-777.27374	909.69458	737.94495	-1171.68396	731.21393	1403.14575	-1274.18115	721.54810	1211.73242	-1295.30688	674.99072	1101.30994	-1313.71106	597.34119	1012.54163	-1287.16980	465.43658	945.77618	-1309.59192	510.92636	903.75848	-1315.01758	435.03598	868.09094	-925.55774	679.36395	957.04980	-1144.80530	692.18628	958.76788	-943.49048	840.28357	978.21680	-1112.33118	843.85583	984.43457	-853.95038	681.95618	646.67450	-883.11487	620.18750	496.43460	-889.58789	596.31757	243.29971	-926.19141	548.72839	75.88221	-976.50714	577.40979	52.47983	-915.38043	403.72025	79.97855	-1184.29785	783.98438	624.84424	-1160.52942	800.15381	499.04733	-1144.13062	913.27435	252.01230	-1086.85486	967.63727	75.69742	-1038.48169	1006.96716	56.22969	-1095.95190	818.16431	30.69771	-1008.28674	787.15765	1691.28943															 
27	0.260	-942.59961	682.15375	1650.68408	-1074.25171	670.90314	1644.90613	-955.66919	813.88116	1593.99902	-1084.26941	800.60095	1593.49585	-1017.30145	804.90546	1441.65259	-1031.83704	855.05402	1115.93250	-1009.43524	696.30304	1362.11816	-1009.72839	666.08319	1185.11499	-1113.70410	875.78467	1281.93884	-852.33228	764.98682	1391.52441	-793.31830	826.56470	1196.93506	-791.27820	865.87115	1091.22449	-772.03101	889.24585	941.98334	-807.59668	856.62744	814.68146	-780.45673	922.76025	827.72693	-777.46210	905.84222	737.55066	-1171.68372	721.77661	1401.60010	-1274.43835	711.38800	1210.38257	-1295.58643	664.12012	1100.36987	-1313.63831	585.27728	1012.80652	-1286.23657	452.44193	948.14343	-1308.99597	497.13959	905.48041	-1314.01343	420.61267	871.16302	-925.76038	668.89215	955.62866	-1145.14111	682.90948	957.56793	-942.89850	830.14459	976.67267	-1111.71240	834.54095	982.98993	-853.17957	673.38104	645.03632	-883.60370	611.88239	494.40430	-890.00256	579.31470	242.30644	-926.66046	525.65784	76.72515	-977.01825	553.46246	52.35372	-915.74487	380.63824	85.46898	-1184.33850	776.55298	624.01202	-1160.69910	793.67493	498.23538	-1144.06873	909.95355	252.44592	-1087.14380	966.96912	76.97370	-1038.66418	1006.57715	58.03870	-1096.03735	817.91565	30.68871	-1008.41339	777.51221	1689.88892															 
28	0.270	-942.53265	672.43280	1649.40088	-1074.20850	661.14850	1643.60498	-955.67670	804.22729	1592.75073	-1084.30176	790.90161	1592.19226	-1017.15070	795.29816	1440.25525	-1031.37830	845.04492	1114.35498	-1009.33398	686.62622	1360.85767	-1009.75653	656.22046	1183.82886	-1113.33582	866.32538	1280.40039	-852.15930	755.45642	1390.12817	-793.33026	817.82135	1195.83496	-791.45691	857.78510	1090.35535	-771.99774	882.80688	941.44489	-807.55927	851.07324	813.72095	-780.44745	917.12500	827.48615	-777.53503	901.33368	737.12921	-1171.59241	712.34814	1400.10876	-1274.58850	701.46808	1209.00708	-1295.76526	653.55157	1099.35059	-1313.46326	573.59369	1012.86987	-1285.29712	439.98337	950.08118	-1308.52271	483.93192	906.83087	-1313.18811	406.95242	873.70880	-925.91479	658.27795	954.25714	-1145.39392	673.49689	956.38098	-942.26855	819.73981	975.18414	-1111.00684	824.91193	981.53412	-853.14075	663.77594	643.17578	-883.87219	603.09259	492.61456	-890.44379	563.41473	241.62291	-927.30365	504.87653	77.68659	-978.15649	532.04779	52.75762	-916.15790	359.89087	90.14726	-1184.35303	768.73645	623.17975	-1160.78638	786.71808	497.35516	-1143.97913	906.28894	253.04474	-1087.25061	966.25824	78.37369	-1038.92212	1006.28918	60.24288	-1095.95068	817.71747	30.58383	-1008.44873	767.74426	1688.60498															 
29	0.280	-942.44293	662.70709	1648.31433	-1074.07471	651.33905	1642.41077	-955.57251	794.44464	1591.59570	-1084.16760	781.06812	1590.92761	-1016.89026	785.61584	1438.93005	-1030.90698	835.04767	1112.96985	-1009.14233	676.77222	1359.66101	-1009.64899	646.06915	1182.71814	-1112.76929	856.74365	1278.88147	-851.92322	745.76306	1388.81702	-793.22388	808.78241	1194.83618	-791.38782	849.22961	1089.52759	-771.74451	875.49762	940.87714	-807.50439	844.81836	812.81512	-780.58258	910.81006	827.20673	-777.60327	896.06915	736.67468	-1171.42041	702.92493	1398.64917	-1274.46106	691.61292	1207.62891	-1295.79968	643.15387	1098.31836	-1313.10095	562.24689	1012.75073	-1284.34644	428.06915	951.56158	-1307.73218	471.47263	907.89764	-1312.16870	393.82892	875.63434	-926.12024	647.59192	953.02209	-1145.71277	663.96979	955.22607	-941.61627	809.34943	973.85577	-1110.25793	815.23169	980.12158	-852.95007	653.22943	642.07910	-884.18658	593.78125	491.19614	-890.98102	549.02490	241.09389	-928.08936	486.39697	78.52539	-978.80267	512.60968	53.07333	-916.66296	341.45126	93.79987	-1184.25684	760.57635	622.34369	-1160.80225	779.49176	496.61014	-1143.95911	902.29443	253.74001	-1087.56677	965.31409	80.12663	-1039.41772	1005.84882	62.84527	-1095.74585	817.21246	30.14360	-1008.47668	758.01227	1687.42578															 
30	0.290	-942.23297	652.89777	1647.27563	-1073.91943	641.61127	1641.32874	-955.35785	784.74042	1590.62195	-1083.94678	771.31372	1589.86047	-1016.52051	775.83600	1437.81665	-1030.31409	824.89612	1111.66138	-1008.92230	666.81067	1358.66797	-1009.51526	636.05164	1181.71423	-1112.09607	847.13605	1277.55859	-851.56799	735.95886	1387.66431	-792.94867	799.37769	1193.88684	-791.23346	840.33026	1088.72839	-771.75537	867.50854	940.23950	-807.31720	837.95825	811.98785	-780.30371	903.70386	826.91644	-777.44684	889.95911	736.26306	-1171.23108	693.46661	1397.40613	-1274.17078	681.98584	1206.35730	-1295.66565	632.94373	1097.31287	-1312.72363	551.30493	1012.50464	-1283.37634	416.73196	952.57318	-1307.21326	459.51184	908.56195	-1311.59485	381.81635	877.32355	-926.26801	636.76672	951.90924	-1145.97949	654.37274	954.10004	-941.05743	799.00122	972.81470	-1109.55505	805.31390	978.79749	-852.60187	641.98505	641.24451	-884.47778	584.25836	490.11383	-891.53455	535.95349	240.53810	-928.72632	470.61597	78.99189	-979.53088	496.15881	53.25705	-917.36755	325.38858	96.22483	-1184.10156	751.89508	621.52197	-1160.74609	771.54022	495.78918	-1144.01709	897.96912	254.62598	-1087.99951	964.00415	81.95179	-1039.84717	1005.05267	65.33820	-1095.73999	817.07947	30.12317	-1008.29022	748.24536	1686.38354															 
